<?xml version="1.0" encoding="utf-8"?>
<!-- Generator: Adobe Illustrator 24.0.1, SVG Export Plug-In . SVG Version: 6.00 Build 0)  -->
<svg version="1.1" id="Layer_1" xmlns="http://www.w3.org/2000/svg" xmlns:xlink="http://www.w3.org/1999/xlink" x="0px" y="0px"
	 viewBox="0 0 228.7 22.2" style="enable-background:new 0 0 228.7 22.2;" xml:space="preserve">
<style type="text/css">
	.st0{enable-background:new    ;}
	.st1{fill:#FFC800;}
	.st2{fill:#FFFFFF;}
	.st3{fill:#0096D6;}
	.st4{fill:#E5E5E5;}
</style>
<g class="st0">
	<path class="st1" d="M9,37l-2.5-3.6c-0.1,0-0.3,0-0.5,0H3.2V37H0.9V24.5H6c1.1,0,2,0.2,2.8,0.5c0.8,0.4,1.4,0.9,1.8,1.5
		c0.4,0.7,0.6,1.5,0.6,2.4s-0.2,1.7-0.7,2.4c-0.5,0.7-1.1,1.2-2,1.5l2.9,4.1L9,37L9,37z M8.2,27.1c-0.5-0.4-1.3-0.6-2.3-0.6H3.2v5
		h2.7c1,0,1.8-0.2,2.3-0.6C8.7,30.4,9,29.8,9,29S8.7,27.6,8.2,27.1z"/>
	<path class="st1" d="M20.4,28.4c0.7,0.7,1.1,1.7,1.1,3V37h-2.1v-1.2c-0.3,0.4-0.7,0.7-1.2,1c-0.5,0.2-1.1,0.3-1.8,0.3
		s-1.3-0.1-1.9-0.4c-0.5-0.2-0.9-0.6-1.2-1c-0.3-0.4-0.4-0.9-0.4-1.5c0-0.9,0.3-1.5,1-2.1c0.6-0.5,1.6-0.8,3-0.8h2.5v-0.1
		c0-0.7-0.2-1.2-0.6-1.5c-0.4-0.4-1-0.5-1.8-0.5c-0.5,0-1.1,0.1-1.6,0.2c-0.5,0.1-1,0.4-1.3,0.7l-0.9-1.6c0.5-0.4,1.1-0.7,1.8-0.9
		c0.7-0.1,1.4-0.2,2.2-0.2C18.6,27.4,19.7,27.7,20.4,28.4z M18.4,35.1c0.4-0.3,0.7-0.6,0.9-1.1v-1.1H17c-1.3,0-1.9,0.4-1.9,1.3
		c0,0.4,0.2,0.7,0.5,1s0.8,0.4,1.3,0.4C17.5,35.5,18,35.4,18.4,35.1z"/>
	<path class="st1" d="M32.7,28.4c0.7,0.7,1.1,1.7,1.1,3.1v5.4h-2.2v-5.2c0-0.8-0.2-1.5-0.6-1.9s-1-0.5-1.7-0.5
		c-0.8,0-1.5,0.2-1.9,0.7c-0.5,0.5-0.7,1.2-0.7,2.1v4.8h-2.2V23.8h2.2v4.8c0.3-0.4,0.7-0.7,1.3-0.9c0.5-0.2,1.1-0.3,1.8-0.3
		C31,27.4,32,27.7,32.7,28.4z"/>
	<path class="st1" d="M45.8,27.5V37h-2.1v-1.2c-0.4,0.4-0.8,0.8-1.3,1s-1.1,0.3-1.7,0.3c-1.3,0-2.3-0.4-3-1.1s-1.1-1.8-1.1-3.1v-5.4
		h2.2v5.1c0,0.9,0.2,1.5,0.6,1.9c0.4,0.4,0.9,0.6,1.6,0.6c0.8,0,1.4-0.2,1.9-0.7s0.7-1.2,0.7-2.1v-4.8H45.8z"/>
	<path class="st1" d="M48.7,23.8h2.2V37h-2.2V23.8z"/>
	<path class="st1" d="M67.1,37l-2.5-3.6c-0.1,0-0.3,0-0.5,0h-2.8V37H59V24.5h5.1c1.1,0,2,0.2,2.8,0.5c0.8,0.4,1.4,0.9,1.8,1.5
		c0.4,0.7,0.6,1.5,0.6,2.4s-0.2,1.7-0.7,2.4c-0.5,0.7-1.1,1.2-2,1.5l2.9,4.1L67.1,37L67.1,37z M66.3,27.1c-0.5-0.4-1.3-0.6-2.3-0.6
		h-2.7v5H64c1,0,1.8-0.2,2.3-0.6s0.8-1,0.8-1.8C67.1,28.3,66.8,27.6,66.3,27.1z"/>
	<path class="st1" d="M78.5,28.4c0.7,0.7,1.1,1.7,1.1,3V37h-2.1v-1.2c-0.3,0.4-0.7,0.7-1.2,1c-0.5,0.2-1.1,0.3-1.8,0.3
		s-1.3-0.1-1.9-0.4c-0.5-0.2-0.9-0.6-1.2-1c-0.3-0.4-0.4-0.9-0.4-1.5c0-0.9,0.3-1.5,1-2.1c0.6-0.5,1.6-0.8,3-0.8h2.5v-0.1
		c0-0.7-0.2-1.2-0.6-1.5c-0.4-0.4-1-0.5-1.8-0.5c-0.5,0-1.1,0.1-1.6,0.2c-0.5,0.1-1,0.4-1.3,0.7l-0.9-1.6c0.5-0.4,1.1-0.7,1.8-0.9
		c0.7-0.1,1.4-0.2,2.2-0.2C76.7,27.4,77.8,27.7,78.5,28.4z M76.5,35.1c0.4-0.3,0.7-0.6,0.9-1.1v-1.1h-2.3c-1.3,0-1.9,0.4-1.9,1.3
		c0,0.4,0.2,0.7,0.5,1s0.8,0.4,1.3,0.4C75.6,35.5,76.1,35.4,76.5,35.1z"/>
	<path class="st1" d="M90.8,28.4c0.7,0.7,1.1,1.7,1.1,3.1v5.4h-2.2v-5.2c0-0.8-0.2-1.5-0.6-1.9s-0.9-0.6-1.7-0.6
		c-0.8,0-1.5,0.2-1.9,0.7c-0.5,0.5-0.7,1.2-0.7,2.1v4.8h-2.2v-9.3h2.1v1.2c0.4-0.4,0.8-0.8,1.4-1c0.4-0.2,1.1-0.3,1.8-0.3
		C89.1,27.4,90,27.7,90.8,28.4z"/>
	<path class="st1" d="M101.5,28.4c0.7,0.7,1.1,1.7,1.1,3V37h-2.1v-1.2c-0.3,0.4-0.7,0.7-1.2,1c-0.5,0.2-1.1,0.3-1.8,0.3
		s-1.3-0.1-1.9-0.4c-0.5-0.2-0.9-0.6-1.2-1c-0.3-0.4-0.4-0.9-0.4-1.5c0-0.9,0.3-1.5,1-2.1c0.6-0.5,1.6-0.8,3-0.8h2.5v-0.1
		c0-0.7-0.2-1.2-0.6-1.5c-0.4-0.4-1-0.5-1.8-0.5c-0.5,0-1.1,0.1-1.6,0.2c-0.5,0.1-1,0.4-1.3,0.7l-0.9-1.6c0.5-0.4,1.1-0.7,1.8-0.9
		c0.7-0.1,1.4-0.2,2.2-0.2C99.7,27.4,100.8,27.7,101.5,28.4z M99.5,35.1c0.4-0.3,0.7-0.6,0.9-1.1v-1.1h-2.3c-1.3,0-1.9,0.4-1.9,1.3
		c0,0.4,0.2,0.7,0.5,1s0.8,0.4,1.3,0.4C98.6,35.5,99.1,35.4,99.5,35.1z"/>
</g>
<g class="st0">
	<path class="st2" d="M113.3,36.3c-1-0.6-1.8-1.3-2.4-2.3s-0.9-2.1-0.9-3.3s0.3-2.3,0.9-3.3s1.4-1.7,2.4-2.3s2.1-0.8,3.4-0.8
		c1,0,1.9,0.2,2.7,0.5c0.8,0.3,1.5,0.8,2.1,1.5l-1.2,1.1c-0.9-1-2.1-1.5-3.5-1.5c-0.9,0-1.8,0.2-2.5,0.6c-0.7,0.4-1.3,1-1.8,1.7
		c-0.4,0.7-0.6,1.5-0.6,2.4c0,0.9,0.2,1.7,0.6,2.4c0.4,0.7,1,1.3,1.8,1.7c0.7,0.4,1.6,0.6,2.5,0.6c1.4,0,2.6-0.5,3.5-1.5l1.2,1.1
		c-0.6,0.6-1.3,1.1-2.1,1.5c-0.8,0.4-1.7,0.5-2.7,0.5C115.4,37.1,114.3,36.9,113.3,36.3z"/>
	<path class="st2" d="M124.8,36.5c-0.7-0.4-1.3-1-1.8-1.7c-0.5-0.7-0.6-1.6-0.6-2.5c0-0.9,0.2-1.8,0.6-2.5c0.4-0.7,1-1.3,1.8-1.7
		s1.6-0.6,2.5-0.6c0.9,0,1.8,0.2,2.5,0.6c0.7,0.4,1.3,1,1.7,1.7c0.4,0.7,0.6,1.6,0.6,2.5c0,0.9-0.2,1.8-0.6,2.5
		c-0.4,0.7-1,1.3-1.7,1.7c-0.7,0.4-1.6,0.6-2.5,0.6C126.4,37.1,125.6,36.9,124.8,36.5z M129,35.2c0.5-0.3,0.9-0.7,1.1-1.2
		c0.3-0.5,0.4-1.1,0.4-1.7c0-0.6-0.1-1.2-0.4-1.7c-0.3-0.5-0.6-0.9-1.1-1.2c-0.5-0.3-1-0.4-1.6-0.4s-1.1,0.1-1.6,0.4
		s-0.9,0.7-1.1,1.2c-0.3,0.5-0.4,1.1-0.4,1.7c0,0.6,0.1,1.2,0.4,1.7s0.7,0.9,1.1,1.2c0.5,0.3,1,0.4,1.6,0.4S128.5,35.5,129,35.2z"/>
	<path class="st2" d="M143.5,23.8V37h-1.6v-1.5c-0.4,0.5-0.9,0.9-1.4,1.2c-0.6,0.3-1.2,0.4-1.9,0.4c-0.9,0-1.7-0.2-2.5-0.6
		c-0.8-0.4-1.3-1-1.7-1.7c-0.4-0.7-0.6-1.6-0.6-2.5c0-0.9,0.2-1.8,0.6-2.5c0.4-0.7,1-1.3,1.7-1.7s1.5-0.6,2.5-0.6
		c0.7,0,1.3,0.1,1.9,0.4s1,0.6,1.4,1.1v-5.2H143.5z M140.3,35.2c0.5-0.3,0.9-0.7,1.1-1.2c0.3-0.5,0.4-1.1,0.4-1.7
		c0-0.6-0.1-1.2-0.4-1.7c-0.3-0.5-0.7-0.9-1.1-1.2c-0.5-0.3-1-0.4-1.6-0.4s-1.1,0.1-1.6,0.4s-0.9,0.7-1.1,1.2
		c-0.3,0.5-0.4,1.1-0.4,1.7c0,0.6,0.1,1.2,0.4,1.7c0.3,0.5,0.7,0.9,1.1,1.2c0.5,0.3,1,0.4,1.6,0.4C139.2,35.6,139.8,35.5,140.3,35.2
		z"/>
	<path class="st2" d="M155.2,32.8h-7.7c0.1,0.8,0.5,1.5,1.1,2s1.4,0.8,2.3,0.8c1.1,0,2-0.4,2.7-1.1l0.9,1.1c-0.4,0.5-1,0.9-1.6,1.1
		c-0.6,0.3-1.3,0.4-2.1,0.4c-1,0-1.9-0.2-2.7-0.6c-0.8-0.4-1.4-1-1.8-1.7c-0.4-0.7-0.6-1.6-0.6-2.5c0-0.9,0.2-1.7,0.6-2.5
		c0.4-0.7,1-1.3,1.7-1.7s1.5-0.6,2.4-0.6s1.7,0.2,2.4,0.6c0.7,0.4,1.3,1,1.7,1.7c0.4,0.7,0.6,1.6,0.6,2.5
		C155.3,32.5,155.3,32.6,155.2,32.8z M148.6,29.7c-0.6,0.5-0.9,1.2-1,2h6.1c-0.1-0.8-0.4-1.4-1-1.9s-1.2-0.8-2.1-0.8
		C149.8,28.9,149.1,29.2,148.6,29.7z"/>
	<path class="st2" d="M158.1,36.8c-0.7-0.2-1.3-0.5-1.7-0.8l0.7-1.4c0.4,0.3,0.9,0.5,1.5,0.7c0.6,0.2,1.2,0.3,1.8,0.3
		c1.5,0,2.2-0.4,2.2-1.3c0-0.3-0.1-0.5-0.3-0.7s-0.5-0.3-0.8-0.4c-0.3-0.1-0.7-0.2-1.3-0.3c-0.8-0.1-1.4-0.3-1.9-0.4
		c-0.5-0.1-0.9-0.4-1.2-0.8s-0.5-0.9-0.5-1.5c0-0.9,0.4-1.5,1.1-2.1c0.7-0.5,1.7-0.8,2.9-0.8c0.6,0,1.3,0.1,1.9,0.2
		c0.6,0.1,1.1,0.4,1.5,0.6l-0.7,1.4c-0.8-0.5-1.7-0.7-2.7-0.7c-0.7,0-1.3,0.1-1.7,0.4c-0.4,0.2-0.6,0.6-0.6,0.9
		c0,0.3,0.1,0.6,0.3,0.7c0.2,0.2,0.5,0.3,0.8,0.4c0.3,0.1,0.8,0.2,1.3,0.3c0.8,0.1,1.4,0.3,1.8,0.4c0.5,0.1,0.9,0.4,1.2,0.8
		c0.3,0.4,0.5,0.9,0.5,1.5c0,0.9-0.4,1.5-1.1,2c-0.7,0.5-1.7,0.8-3,0.8C159.6,37.1,158.8,37,158.1,36.8z"/>
</g>
<path class="st3" d="M10.2,17.8L7.6,14c-0.1,0-0.3,0-0.5,0H4.2v3.8H1.7v-13h5.3C8.2,4.8,9.2,5,10,5.3c0.8,0.4,1.5,0.9,1.9,1.6
	c0.4,0.7,0.7,1.5,0.7,2.5c0,1-0.2,1.8-0.7,2.5c-0.5,0.7-1.2,1.2-2.1,1.6l3,4.3H10.2z M9.4,7.5C8.8,7,8,6.8,7,6.8H4.2V12H7
	c1.1,0,1.8-0.2,2.4-0.7c0.5-0.5,0.8-1.1,0.8-1.9S9.9,7.9,9.4,7.5z"/>
<path class="st3" d="M22.1,8.8c0.8,0.7,1.2,1.8,1.2,3.2v5.8h-2.2v-1.2c-0.3,0.4-0.7,0.8-1.2,1c-0.5,0.2-1.2,0.3-1.9,0.3
	s-1.4-0.1-1.9-0.4c-0.6-0.3-1-0.6-1.3-1.1c-0.3-0.5-0.5-1-0.5-1.5c0-0.9,0.3-1.6,1-2.1S17,12,18.4,12H21v-0.1c0-0.7-0.2-1.2-0.6-1.6
	c-0.4-0.4-1-0.6-1.8-0.6c-0.6,0-1.1,0.1-1.6,0.3c-0.5,0.2-1,0.4-1.4,0.7L14.6,9c0.5-0.4,1.1-0.7,1.9-0.9s1.5-0.3,2.3-0.3
	C20.2,7.7,21.4,8.1,22.1,8.8z M20,15.8c0.5-0.3,0.8-0.6,1-1.1v-1.2h-2.4c-1.3,0-2,0.4-2,1.3c0,0.4,0.2,0.8,0.5,1
	c0.3,0.2,0.8,0.4,1.4,0.4C19,16.2,19.6,16.1,20,15.8z"/>
<path class="st3" d="M34.9,8.8c0.8,0.7,1.1,1.8,1.1,3.2v5.7h-2.3v-5.4c0-0.9-0.2-1.5-0.6-2c-0.4-0.4-1-0.7-1.7-0.7
	c-0.9,0-1.5,0.3-2,0.8c-0.5,0.5-0.7,1.3-0.7,2.2v5h-2.3V4h2.3v5C29,8.6,29.4,8.3,30,8.1c0.6-0.2,1.2-0.3,1.9-0.3
	C33.1,7.7,34.1,8.1,34.9,8.8z"/>
<path class="st3" d="M48.6,7.9v9.9h-2.2v-1.3c-0.4,0.4-0.8,0.8-1.4,1s-1.2,0.4-1.8,0.4c-1.3,0-2.4-0.4-3.1-1.1
	c-0.8-0.7-1.1-1.8-1.1-3.3V7.9h2.3v5.3c0,0.9,0.2,1.6,0.6,2c0.4,0.4,1,0.7,1.7,0.7c0.8,0,1.5-0.3,2-0.8c0.5-0.5,0.7-1.3,0.7-2.2v-5
	H48.6z"/>
<path class="st3" d="M51.6,4h2.3v13.8h-2.3V4z"/>
<path class="st3" d="M65.7,17.8L63,14c-0.1,0-0.3,0-0.5,0h-2.9v3.8h-2.4v-13h5.3c1.1,0,2.1,0.2,2.9,0.6c0.8,0.4,1.5,0.9,1.9,1.6
	c0.4,0.7,0.7,1.5,0.7,2.5c0,1-0.2,1.8-0.7,2.5c-0.5,0.7-1.2,1.2-2.1,1.6l3,4.3H65.7z M64.8,7.5c-0.5-0.4-1.3-0.7-2.4-0.7h-2.8V12
	h2.8c1.1,0,1.8-0.2,2.4-0.7c0.5-0.5,0.8-1.1,0.8-1.9S65.4,7.9,64.8,7.5z"/>
<path class="st3" d="M77.6,8.8c0.8,0.7,1.2,1.8,1.2,3.2v5.8h-2.2v-1.2c-0.3,0.4-0.7,0.8-1.2,1c-0.5,0.2-1.2,0.3-1.9,0.3
	s-1.4-0.1-1.9-0.4c-0.6-0.3-1-0.6-1.3-1.1c-0.3-0.5-0.5-1-0.5-1.5c0-0.9,0.3-1.6,1-2.1s1.7-0.8,3.1-0.8h2.6v-0.1
	c0-0.7-0.2-1.2-0.6-1.6c-0.4-0.4-1-0.6-1.8-0.6c-0.6,0-1.1,0.1-1.6,0.3c-0.5,0.2-1,0.4-1.4,0.7L70,9c0.5-0.4,1.1-0.7,1.9-0.9
	s1.5-0.3,2.3-0.3C75.7,7.7,76.8,8.1,77.6,8.8z M75.5,15.8c0.5-0.3,0.8-0.6,1-1.1v-1.2H74c-1.3,0-2,0.4-2,1.3c0,0.4,0.2,0.8,0.5,1
	c0.3,0.2,0.8,0.4,1.4,0.4C74.5,16.2,75,16.1,75.5,15.8z"/>
<path class="st3" d="M90.3,8.8c0.8,0.7,1.1,1.8,1.1,3.2v5.7h-2.3v-5.4c0-0.9-0.2-1.5-0.6-2c-0.4-0.4-1-0.7-1.7-0.7
	c-0.9,0-1.5,0.3-2,0.8c-0.5,0.5-0.7,1.3-0.7,2.2v5h-2.3V7.9h2.2v1.3c0.4-0.5,0.9-0.8,1.4-1c0.6-0.2,1.2-0.4,2-0.4
	C88.6,7.7,89.6,8.1,90.3,8.8z"/>
<path class="st3" d="M101.5,8.8c0.8,0.7,1.2,1.8,1.2,3.2v5.8h-2.2v-1.2c-0.3,0.4-0.7,0.8-1.2,1c-0.5,0.2-1.2,0.3-1.9,0.3
	s-1.4-0.1-1.9-0.4c-0.6-0.3-1-0.6-1.3-1.1c-0.3-0.5-0.5-1-0.5-1.5c0-0.9,0.3-1.6,1-2.1s1.7-0.8,3.1-0.8h2.6v-0.1
	c0-0.7-0.2-1.2-0.6-1.6c-0.4-0.4-1-0.6-1.8-0.6c-0.6,0-1.1,0.1-1.6,0.3c-0.5,0.2-1,0.4-1.4,0.7L94,9c0.5-0.4,1.1-0.7,1.9-0.9
	s1.5-0.3,2.3-0.3C99.7,7.7,100.8,8.1,101.5,8.8z M99.4,15.8c0.5-0.3,0.8-0.6,1-1.1v-1.2H98c-1.3,0-2,0.4-2,1.3c0,0.4,0.2,0.8,0.5,1
	c0.3,0.2,0.8,0.4,1.4,0.4C98.5,16.2,99,16.1,99.4,15.8z"/>
<path class="st4" d="M105.3,17.5c-0.3-0.3-0.4-0.7-0.4-1.1c0-0.5,0.1-0.8,0.4-1.1c0.3-0.3,0.7-0.4,1.1-0.4s0.8,0.1,1.1,0.4
	c0.3,0.3,0.4,0.7,0.4,1.1c0,0.4-0.1,0.8-0.4,1.1c-0.3,0.3-0.7,0.4-1.1,0.4S105.6,17.8,105.3,17.5z"/>
<path class="st2" d="M111.6,17.3c-0.7-0.4-1.2-0.8-1.6-1.5c-0.4-0.6-0.6-1.4-0.6-2.2c0-1.1,0.2-2.1,0.7-3s1.2-1.6,2.1-2.1
	s1.9-0.8,3-0.8c1.9,0,3.3,0.7,4,2.1l-1.5,0.8c-0.5-0.9-1.4-1.4-2.7-1.4c-0.7,0-1.4,0.2-2,0.5c-0.6,0.4-1,0.8-1.4,1.5
	s-0.5,1.3-0.5,2.2c0,0.9,0.3,1.5,0.8,2c0.5,0.5,1.2,0.7,2.2,0.7c0.6,0,1.1-0.1,1.7-0.4c0.5-0.2,0.9-0.6,1.3-1l1.3,0.9
	c-0.5,0.6-1.1,1.1-1.8,1.5c-0.8,0.4-1.6,0.5-2.5,0.5C113.1,17.9,112.3,17.7,111.6,17.3z"/>
<path class="st2" d="M122,17.3c-0.7-0.4-1.2-0.9-1.6-1.5c-0.4-0.6-0.6-1.4-0.6-2.2c0-1.1,0.2-2.1,0.7-3s1.2-1.6,2.1-2.1
	c0.9-0.5,1.9-0.8,3-0.8c0.9,0,1.7,0.2,2.4,0.5c0.7,0.3,1.2,0.8,1.6,1.5s0.6,1.4,0.6,2.2c0,1.1-0.2,2.1-0.7,3
	c-0.5,0.9-1.2,1.6-2.1,2.1s-1.9,0.8-3,0.8C123.5,17.9,122.7,17.7,122,17.3z M126.5,15.8c0.6-0.4,1-0.8,1.4-1.5s0.5-1.3,0.5-2.2
	c0-0.9-0.3-1.6-0.8-2c-0.5-0.5-1.2-0.7-2.2-0.7c-0.7,0-1.4,0.2-2,0.5c-0.6,0.4-1,0.8-1.4,1.5s-0.5,1.3-0.5,2.2c0,0.9,0.3,1.5,0.8,2
	c0.5,0.5,1.2,0.7,2.2,0.7C125.3,16.3,126,16.1,126.5,15.8z"/>
<path class="st2" d="M143.6,4l-2.7,13.8h-1.7l0.2-1.2c-0.4,0.4-1,0.7-1.5,1c-0.6,0.2-1.2,0.3-1.9,0.3c-0.8,0-1.6-0.2-2.2-0.5
	c-0.7-0.3-1.2-0.8-1.5-1.5c-0.4-0.6-0.6-1.4-0.6-2.3c0-1.1,0.2-2.1,0.7-3s1.1-1.6,2-2.1c0.8-0.5,1.8-0.7,2.8-0.7
	c0.8,0,1.6,0.2,2.2,0.5s1.1,0.7,1.4,1.3l1.1-5.6H143.6z M138.3,15.8c0.6-0.4,1-0.8,1.4-1.5s0.5-1.3,0.5-2.2c0-0.9-0.3-1.6-0.8-2
	c-0.5-0.5-1.2-0.7-2.2-0.7c-0.7,0-1.4,0.2-2,0.5c-0.6,0.4-1,0.8-1.4,1.5s-0.5,1.3-0.5,2.2c0,0.9,0.3,1.5,0.8,2
	c0.5,0.5,1.2,0.7,2.2,0.7C137.1,16.3,137.7,16.1,138.3,15.8z"/>
<path class="st2" d="M146,13.4v0.1c0,0.9,0.3,1.6,0.8,2.1c0.5,0.5,1.3,0.7,2.3,0.7c0.6,0,1.2-0.1,1.7-0.3c0.5-0.2,1-0.5,1.3-0.8
	l0.8,1.3c-0.5,0.4-1.1,0.8-1.8,1c-0.7,0.2-1.4,0.4-2.2,0.4c-1,0-1.8-0.2-2.5-0.5c-0.7-0.3-1.2-0.8-1.6-1.5c-0.4-0.6-0.6-1.4-0.6-2.3
	c0-1.1,0.2-2.1,0.7-3c0.5-0.9,1.1-1.6,2-2.1c0.8-0.5,1.8-0.7,2.8-0.7c1.3,0,2.4,0.4,3.2,1.1s1.2,1.8,1.2,3.1c0,0.4,0,0.8-0.1,1.3
	H146z M147.5,10.1c-0.6,0.5-1.1,1.2-1.3,2h6.3c0-0.9-0.2-1.6-0.7-2.1s-1.2-0.7-2.1-0.7C148.9,9.3,148.1,9.6,147.5,10.1z"/>
<path class="st2" d="M156.4,17.6c-0.7-0.2-1.3-0.5-1.7-0.8l0.8-1.4c0.4,0.3,0.9,0.6,1.5,0.7c0.6,0.2,1.3,0.3,1.9,0.3
	c0.8,0,1.5-0.1,1.9-0.4c0.4-0.3,0.7-0.6,0.7-1.1c0-0.4-0.2-0.6-0.5-0.8c-0.4-0.2-0.9-0.3-1.6-0.5c-0.7-0.1-1.3-0.3-1.7-0.5
	c-0.4-0.2-0.8-0.4-1.1-0.7c-0.3-0.3-0.5-0.8-0.5-1.4c0-0.6,0.2-1.2,0.5-1.7c0.4-0.5,0.9-0.9,1.6-1.1c0.7-0.3,1.5-0.4,2.3-0.4
	c0.7,0,1.3,0.1,1.9,0.2c0.6,0.2,1.1,0.4,1.5,0.6l-0.7,1.4c-0.4-0.3-0.8-0.5-1.3-0.6c-0.5-0.1-1-0.2-1.6-0.2c-0.8,0-1.4,0.1-1.9,0.4
	c-0.4,0.3-0.6,0.6-0.6,1.1c0,0.4,0.2,0.7,0.5,0.8c0.4,0.2,0.9,0.3,1.7,0.5c0.7,0.1,1.2,0.3,1.7,0.4c0.4,0.1,0.8,0.4,1.1,0.7
	c0.3,0.3,0.5,0.8,0.5,1.4c0,1-0.4,1.8-1.2,2.3c-0.8,0.6-1.9,0.8-3.3,0.8C157.9,17.9,157.1,17.8,156.4,17.6z"/>
<text transform="matrix(1 0 0 1 0 -5.3965)"><tspan x="0" y="0" class="st3" style="font-family:'Montserrat-SemiBold'; font-size:18.556px;">RahulRana</tspan><tspan x="104.3" y="0" class="st4" style="font-family:'Montserrat-SemiBold'; font-size:18.556px;">.</tspan><tspan x="108.9" y="0" class="st2" style="font-family:'Montserrat-MediumItalic'; font-size:18.556px;">codes</tspan></text>
<image style="overflow:visible;" width="1349" height="656" xlink:href="933554DA.jpg"  transform="matrix(0.1561 0 0 0.1561 -30.3365 52.3962)">
</image>
</svg>
