<?xml version="1.0" encoding="utf-8"?>
<!-- Generator: Adobe Illustrator 24.0.1, SVG Export Plug-In . SVG Version: 6.00 Build 0)  -->
<svg version="1.1" id="Layer_1" xmlns="http://www.w3.org/2000/svg" xmlns:xlink="http://www.w3.org/1999/xlink" x="0px" y="0px"
	 viewBox="0 0 228.7 22.2" style="enable-background:new 0 0 228.7 22.2;" xml:space="preserve">
<style type="text/css">
	.st0{enable-background:new    ;}
	.st1{fill:#FFC800;}
	.st2{fill:#FFFFFF;}
</style>
<g class="st0">
	<path class="st1" d="M9,17.6l-2.5-3.6c-0.1,0-0.3,0-0.5,0H3.2v3.6H0.9V5.1H6c1.1,0,2,0.2,2.8,0.5c0.8,0.4,1.4,0.9,1.8,1.5
		c0.4,0.7,0.6,1.5,0.6,2.4c0,0.9-0.2,1.7-0.7,2.4s-1.1,1.2-2,1.5l2.9,4.1H9z M8.2,7.7C7.7,7.3,6.9,7.1,5.9,7.1H3.2v5h2.7
		c1,0,1.8-0.2,2.3-0.6C8.7,11,9,10.4,9,9.6S8.7,8.2,8.2,7.7z"/>
	<path class="st1" d="M20.4,9c0.7,0.7,1.1,1.7,1.1,3v5.6h-2.1v-1.2c-0.3,0.4-0.7,0.7-1.2,1c-0.5,0.2-1.1,0.3-1.8,0.3
		s-1.3-0.1-1.9-0.4c-0.5-0.2-0.9-0.6-1.2-1c-0.3-0.4-0.4-0.9-0.4-1.5c0-0.9,0.3-1.5,1-2.1c0.6-0.5,1.6-0.8,3-0.8h2.5v-0.1
		c0-0.7-0.2-1.2-0.6-1.5c-0.4-0.4-1-0.5-1.8-0.5c-0.5,0-1.1,0.1-1.6,0.2s-1,0.4-1.3,0.7l-0.9-1.6c0.5-0.4,1.1-0.7,1.8-0.9
		C15.7,8.1,16.4,8,17.2,8C18.6,8,19.7,8.3,20.4,9z M18.4,15.7c0.4-0.3,0.7-0.6,0.9-1.1v-1.1H17c-1.3,0-1.9,0.4-1.9,1.3
		c0,0.4,0.2,0.7,0.5,1s0.8,0.4,1.3,0.4C17.5,16.1,18,16,18.4,15.7z"/>
	<path class="st1" d="M32.7,9c0.7,0.7,1.1,1.7,1.1,3.1v5.4h-2.2v-5.2c0-0.8-0.2-1.5-0.6-1.9S30,9.9,29.3,9.9c-0.8,0-1.5,0.2-1.9,0.7
		c-0.5,0.5-0.7,1.2-0.7,2.1v4.8h-2.2V4.4h2.2v4.8C27,8.8,27.4,8.5,28,8.3C28.5,8.1,29.1,8,29.8,8C31,8,32,8.3,32.7,9z"/>
	<path class="st1" d="M45.8,8.1v9.5h-2.1v-1.2c-0.4,0.4-0.8,0.8-1.3,1s-1.1,0.3-1.7,0.3c-1.3,0-2.3-0.4-3-1.1
		c-0.7-0.7-1.1-1.8-1.1-3.1V8.1h2.2v5.1c0,0.9,0.2,1.5,0.6,1.9c0.4,0.4,0.9,0.6,1.6,0.6c0.8,0,1.4-0.2,1.9-0.7s0.7-1.2,0.7-2.1V8.1
		H45.8z"/>
	<path class="st1" d="M48.7,4.4h2.2v13.2h-2.2V4.4z"/>
	<path class="st1" d="M67.1,17.6l-2.5-3.6c-0.1,0-0.3,0-0.5,0h-2.8v3.6H59V5.1h5.1c1.1,0,2,0.2,2.8,0.5c0.8,0.4,1.4,0.9,1.8,1.5
		c0.4,0.7,0.6,1.5,0.6,2.4c0,0.9-0.2,1.7-0.7,2.4s-1.1,1.2-2,1.5l2.9,4.1H67.1z M66.3,7.7C65.8,7.3,65,7.1,64,7.1h-2.7v5H64
		c1,0,1.8-0.2,2.3-0.6c0.5-0.4,0.8-1,0.8-1.8S66.8,8.2,66.3,7.7z"/>
	<path class="st1" d="M78.5,9c0.7,0.7,1.1,1.7,1.1,3v5.6h-2.1v-1.2c-0.3,0.4-0.7,0.7-1.2,1c-0.5,0.2-1.1,0.3-1.8,0.3
		s-1.3-0.1-1.9-0.4c-0.5-0.2-0.9-0.6-1.2-1c-0.3-0.4-0.4-0.9-0.4-1.5c0-0.9,0.3-1.5,1-2.1c0.6-0.5,1.6-0.8,3-0.8h2.5v-0.1
		c0-0.7-0.2-1.2-0.6-1.5c-0.4-0.4-1-0.5-1.8-0.5c-0.5,0-1.1,0.1-1.6,0.2s-1,0.4-1.3,0.7l-0.9-1.6c0.5-0.4,1.1-0.7,1.8-0.9
		C73.8,8.1,74.5,8,75.3,8C76.7,8,77.8,8.3,78.5,9z M76.5,15.7c0.4-0.3,0.7-0.6,0.9-1.1v-1.1h-2.3c-1.3,0-1.9,0.4-1.9,1.3
		c0,0.4,0.2,0.7,0.5,1s0.8,0.4,1.3,0.4C75.6,16.1,76.1,16,76.5,15.7z"/>
	<path class="st1" d="M90.8,9c0.7,0.7,1.1,1.7,1.1,3.1v5.4h-2.2v-5.2c0-0.8-0.2-1.5-0.6-1.9s-0.9-0.6-1.7-0.6
		c-0.8,0-1.5,0.2-1.9,0.7c-0.5,0.5-0.7,1.2-0.7,2.1v4.8h-2.2V8.1h2.1v1.2c0.4-0.4,0.8-0.8,1.4-1C86.5,8.1,87.2,8,87.9,8
		C89.1,8,90,8.3,90.8,9z"/>
	<path class="st1" d="M101.5,9c0.7,0.7,1.1,1.7,1.1,3v5.6h-2.1v-1.2c-0.3,0.4-0.7,0.7-1.2,1c-0.5,0.2-1.1,0.3-1.8,0.3
		s-1.3-0.1-1.9-0.4c-0.5-0.2-0.9-0.6-1.2-1c-0.3-0.4-0.4-0.9-0.4-1.5c0-0.9,0.3-1.5,1-2.1c0.6-0.5,1.6-0.8,3-0.8h2.5v-0.1
		c0-0.7-0.2-1.2-0.6-1.5c-0.4-0.4-1-0.5-1.8-0.5c-0.5,0-1.1,0.1-1.6,0.2s-1,0.4-1.3,0.7l-0.9-1.6c0.5-0.4,1.1-0.7,1.8-0.9
		C96.8,8.1,97.5,8,98.3,8C99.7,8,100.8,8.3,101.5,9z M99.5,15.7c0.4-0.3,0.7-0.6,0.9-1.1v-1.1h-2.3c-1.3,0-1.9,0.4-1.9,1.3
		c0,0.4,0.2,0.7,0.5,1s0.8,0.4,1.3,0.4C98.6,16.1,99.1,16,99.5,15.7z"/>
</g>
<g class="st0">
	<path class="st2" d="M113.3,16.9c-1-0.6-1.8-1.3-2.4-2.3c-0.6-1-0.9-2.1-0.9-3.3s0.3-2.3,0.9-3.3c0.6-1,1.4-1.7,2.4-2.3
		c1-0.6,2.1-0.8,3.4-0.8c1,0,1.9,0.2,2.7,0.5s1.5,0.8,2.1,1.5L120.3,8c-0.9-1-2.1-1.5-3.5-1.5c-0.9,0-1.8,0.2-2.5,0.6
		c-0.7,0.4-1.3,1-1.8,1.7c-0.4,0.7-0.6,1.5-0.6,2.4c0,0.9,0.2,1.7,0.6,2.4c0.4,0.7,1,1.3,1.8,1.7c0.7,0.4,1.6,0.6,2.5,0.6
		c1.4,0,2.6-0.5,3.5-1.5l1.2,1.1c-0.6,0.6-1.3,1.1-2.1,1.5s-1.7,0.5-2.7,0.5C115.4,17.7,114.3,17.5,113.3,16.9z"/>
	<path class="st2" d="M124.8,17.1c-0.7-0.4-1.3-1-1.8-1.7s-0.6-1.6-0.6-2.5c0-0.9,0.2-1.8,0.6-2.5s1-1.3,1.8-1.7s1.6-0.6,2.5-0.6
		c0.9,0,1.8,0.2,2.5,0.6s1.3,1,1.7,1.7c0.4,0.7,0.6,1.6,0.6,2.5c0,0.9-0.2,1.8-0.6,2.5c-0.4,0.7-1,1.3-1.7,1.7
		c-0.7,0.4-1.6,0.6-2.5,0.6C126.4,17.7,125.6,17.5,124.8,17.1z M129,15.8c0.5-0.3,0.9-0.7,1.1-1.2c0.3-0.5,0.4-1.1,0.4-1.7
		s-0.1-1.2-0.4-1.7c-0.3-0.5-0.6-0.9-1.1-1.2s-1-0.4-1.6-0.4c-0.6,0-1.1,0.1-1.6,0.4s-0.9,0.7-1.1,1.2c-0.3,0.5-0.4,1.1-0.4,1.7
		s0.1,1.2,0.4,1.7c0.3,0.5,0.7,0.9,1.1,1.2c0.5,0.3,1,0.4,1.6,0.4C128,16.2,128.5,16.1,129,15.8z"/>
	<path class="st2" d="M143.5,4.4v13.2h-1.6v-1.5c-0.4,0.5-0.9,0.9-1.4,1.2c-0.6,0.3-1.2,0.4-1.9,0.4c-0.9,0-1.7-0.2-2.5-0.6
		s-1.3-1-1.7-1.7c-0.4-0.7-0.6-1.6-0.6-2.5s0.2-1.8,0.6-2.5s1-1.3,1.7-1.7s1.5-0.6,2.5-0.6c0.7,0,1.3,0.1,1.9,0.4s1,0.6,1.4,1.1V4.4
		H143.5z M140.3,15.8c0.5-0.3,0.9-0.7,1.1-1.2c0.3-0.5,0.4-1.1,0.4-1.7s-0.1-1.2-0.4-1.7c-0.3-0.5-0.7-0.9-1.1-1.2
		c-0.5-0.3-1-0.4-1.6-0.4c-0.6,0-1.1,0.1-1.6,0.4s-0.9,0.7-1.1,1.2c-0.3,0.5-0.4,1.1-0.4,1.7s0.1,1.2,0.4,1.7
		c0.3,0.5,0.7,0.9,1.1,1.2c0.5,0.3,1,0.4,1.6,0.4C139.2,16.2,139.8,16.1,140.3,15.8z"/>
	<path class="st2" d="M155.2,13.4h-7.7c0.1,0.8,0.5,1.5,1.1,2c0.6,0.5,1.4,0.8,2.3,0.8c1.1,0,2-0.4,2.7-1.1l0.9,1.1
		c-0.4,0.5-1,0.9-1.6,1.1c-0.6,0.3-1.3,0.4-2.1,0.4c-1,0-1.9-0.2-2.7-0.6c-0.8-0.4-1.4-1-1.8-1.7c-0.4-0.7-0.6-1.6-0.6-2.5
		c0-0.9,0.2-1.7,0.6-2.5c0.4-0.7,1-1.3,1.7-1.7s1.5-0.6,2.4-0.6c0.9,0,1.7,0.2,2.4,0.6c0.7,0.4,1.3,1,1.7,1.7
		c0.4,0.7,0.6,1.6,0.6,2.5C155.3,13.1,155.3,13.2,155.2,13.4z M148.6,10.3c-0.6,0.5-0.9,1.2-1,2h6.1c-0.1-0.8-0.4-1.4-1-1.9
		c-0.6-0.5-1.2-0.8-2.1-0.8C149.8,9.5,149.1,9.8,148.6,10.3z"/>
	<path class="st2" d="M158.1,17.4c-0.7-0.2-1.3-0.5-1.7-0.8l0.7-1.4c0.4,0.3,0.9,0.5,1.5,0.7c0.6,0.2,1.2,0.3,1.8,0.3
		c1.5,0,2.2-0.4,2.2-1.3c0-0.3-0.1-0.5-0.3-0.7c-0.2-0.2-0.5-0.3-0.8-0.4c-0.3-0.1-0.7-0.2-1.3-0.3c-0.8-0.1-1.4-0.3-1.9-0.4
		s-0.9-0.4-1.2-0.8c-0.3-0.4-0.5-0.9-0.5-1.5c0-0.9,0.4-1.5,1.1-2.1c0.7-0.5,1.7-0.8,2.9-0.8c0.6,0,1.3,0.1,1.9,0.2s1.1,0.4,1.5,0.6
		l-0.7,1.4c-0.8-0.5-1.7-0.7-2.7-0.7c-0.7,0-1.3,0.1-1.7,0.4c-0.4,0.2-0.6,0.6-0.6,0.9c0,0.3,0.1,0.6,0.3,0.7
		c0.2,0.2,0.5,0.3,0.8,0.4s0.8,0.2,1.3,0.3c0.8,0.1,1.4,0.3,1.8,0.4c0.5,0.1,0.9,0.4,1.2,0.8c0.3,0.4,0.5,0.9,0.5,1.5
		c0,0.9-0.4,1.5-1.1,2c-0.7,0.5-1.7,0.8-3,0.8C159.6,17.7,158.8,17.6,158.1,17.4z"/>
</g>
</svg>
